<?xml version="1.0" standalone="no"?>
<!DOCTYPE svg PUBLIC "-//W3C//DTD SVG 20010904//EN"
 "http://www.w3.org/TR/2001/REC-SVG-20010904/DTD/svg10.dtd">
<svg version="1.0" xmlns="http://www.w3.org/2000/svg"
 width="384.000000pt" height="512.000000pt" viewBox="0 0 384.000000 512.000000"
 preserveAspectRatio="xMidYMid meet">
<metadata>
Created by potrace 1.16, written by Peter Selinger 2001-2019
</metadata>
<g transform="translate(0.000000,512.000000) scale(0.100000,-0.100000)"
fill="#000000" stroke="none">
<path d="M180 5111 c-68 -21 -121 -65 -156 -131 -18 -34 -19 -112 -19 -2415
l0 -2380 25 -49 c28 -56 79 -101 136 -121 33 -12 323 -14 1750 -14 1895 -1
1760 -6 1842 64 22 19 48 54 58 77 18 41 19 107 22 1710 l2 1668 -718 2 -719
3 -49 30 c-30 19 -60 49 -79 79 l-30 49 -3 719 -2 718 -1018 -1 c-559 0 -1028
-4 -1042 -8z m1375 -2576 c24 -23 25 -31 25 -135 0 -104 -1 -112 -25 -135 -23
-24 -43 -27 -150 -25 -19 1 -84 -36 -103 -57 -37 -43 -44 -93 -40 -287 3 -165
5 -184 25 -216 33 -53 73 -72 170 -79 117 -9 123 -17 123 -163 0 -102 -1 -110
-25 -133 -22 -23 -32 -25 -112 -25 -156 0 -262 41 -362 141 -65 64 -104 131
-126 214 -22 86 -22 499 1 576 22 75 67 150 124 208 98 99 201 140 353 140 91
1 100 -1 122 -24z m710 0 c24 -23 25 -30 26 -157 1 -73 3 -158 5 -188 10 -138
64 -322 125 -429 l31 -53 30 58 c45 85 85 200 102 295 20 107 24 153 25 317 1
127 2 134 26 157 23 24 31 25 135 25 106 0 112 -1 137 -26 l25 -25 -5 -217
c-2 -119 -7 -228 -11 -242 -3 -14 -10 -49 -16 -78 -29 -156 -119 -363 -219
-502 -109 -151 -156 -190 -229 -190 -78 0 -122 35 -233 190 -75 104 -132 216
-173 341 -59 178 -68 234 -73 476 l-5 222 25 25 c25 25 31 26 137 26 104 0
112 -1 135 -25z"/>
<path d="M2560 4481 l0 -641 641 0 642 0 -6 65 c-3 35 -15 81 -26 102 -25 48
-1044 1065 -1089 1088 -19 9 -62 19 -98 22 l-64 6 0 -642z"/>
</g>
</svg>
